<svg xmlns="http://www.w3.org/2000/svg" width="2340" height="448" viewBox="0 0 2340 448">
<g>
<path d="M 1081.76 396.97 L 1082.02 448.00 L 0.00 448.00 L 0.00 0.00 L 2340.00 0.00 L 2340.00 448.00 L 1130.00 448.00 L 1130.00 352.75 C1130.00,300.36 1130.30,236.91 1130.66,211.75 L 1131.33 166.00 L 1086.29 166.00 L 1085.65 172.75 C1085.30,176.46 1084.97,182.43 1084.91,186.00 C1084.85,189.57 1084.51,193.55 1084.15,194.82 C1083.55,196.95 1083.09,196.59 1078.68,190.60 C1070.10,178.91 1057.76,170.02 1043.50,165.26 C1036.01,162.75 1034.33,162.58 1017.00,162.54 C1000.63,162.50 997.58,162.76 990.50,164.79 C961.19,173.20 940.45,194.23 930.13,226.00 C925.29,240.92 923.73,251.46 923.70,269.50 C923.67,287.62 925.36,299.31 930.01,313.18 C941.00,345.98 963.02,367.82 993.50,376.16 C1004.24,379.09 1028.12,379.41 1038.00,376.74 C1052.70,372.78 1068.60,362.44 1077.50,351.06 L 1081.50 345.95 ZM 1650.00 89.00 L 1650.00 378.12 L 1721.25 377.72 C1782.71,377.37 1793.53,377.09 1799.97,375.66 C1835.76,367.77 1858.49,348.32 1865.66,319.47 C1868.29,308.87 1868.04,289.82 1865.13,279.50 C1859.32,258.89 1847.03,243.95 1828.25,234.66 C1824.81,232.96 1822.00,231.33 1822.00,231.04 C1822.00,230.74 1824.02,229.23 1826.48,227.67 C1833.04,223.53 1843.19,212.08 1847.39,204.08 C1856.85,186.07 1858.21,163.17 1851.05,142.24 C1847.03,130.47 1842.72,123.73 1832.89,113.84 C1825.46,106.36 1822.85,104.48 1813.89,100.10 C1792.37,89.61 1786.77,89.00 1711.43,89.00 ZM 104.50 393.06 C108.35,393.46 148.18,393.67 193.00,393.55 C266.18,393.34 275.26,393.14 281.90,391.58 C320.71,382.52 349.96,354.14 359.60,316.21 C361.37,309.27 362.25,302.43 362.69,292.25 L 363.31 278.00 L 298.00 278.00 L 298.00 285.45 C298.00,289.55 297.50,295.29 296.89,298.20 C294.31,310.52 285.17,321.74 274.00,326.27 C268.54,328.48 268.03,328.50 205.74,328.79 C163.68,328.98 141.68,328.72 139.03,328.01 C133.56,326.54 126.98,321.25 124.00,315.95 L 121.50 311.50 L 121.23 224.40 L 120.96 137.31 L 123.77 131.90 C125.95,127.72 127.81,125.76 132.00,123.25 L 137.41 120.00 L 208.74 120.00 C211.11,120.00 213.40,120.00 215.62,120.00 C275.89,120.00 283.26,119.99 287.88,123.56 C288.70,124.19 289.42,124.93 290.34,125.80 C296.51,131.66 297.40,134.91 297.82,153.25 L 298.20 170.00 L 363.19 170.00 L 362.76 137.75 C362.37,108.73 362.11,104.72 360.19,97.69 C354.42,76.62 341.25,63.05 321.00,57.34 C314.88,55.61 308.33,55.50 209.50,55.50 C110.69,55.50 104.12,55.61 98.00,57.33 C78.59,62.81 65.22,75.87 59.07,95.34 L 56.50 103.50 L 56.50 226.50 C56.50,343.06 56.60,349.81 58.34,355.46 C62.41,368.66 69.32,377.95 80.45,385.19 C87.35,389.67 94.62,392.06 104.50,393.06 ZM 580.00 383.33 C588.68,383.87 603.65,382.98 614.00,381.31 C658.37,374.15 692.14,349.31 714.71,307.24 C717.58,301.90 719.60,297.23 719.21,296.88 C718.25,296.01 674.79,276.00 673.87,276.00 C673.47,276.00 671.55,279.26 669.62,283.25 C656.14,310.99 635.75,327.27 607.01,333.23 C599.31,334.83 595.03,335.11 584.50,334.69 C559.30,333.70 541.72,325.91 524.89,308.28 C512.70,295.52 505.22,281.05 500.76,261.60 C497.82,248.79 497.81,222.68 500.73,209.00 C503.43,196.39 508.61,182.87 514.61,172.80 C521.29,161.57 535.90,146.83 546.50,140.63 C561.99,131.57 581.36,127.24 601.50,128.33 C633.97,130.09 658.19,145.44 671.99,173.00 C673.23,175.48 674.67,178.04 675.20,178.69 C676.11,179.83 694.87,171.30 715.24,160.48 L 721.97 156.90 L 718.37 149.70 C696.40,105.87 657.77,82.19 603.63,79.39 C560.74,77.17 521.73,91.47 492.94,119.95 C459.39,153.15 443.46,198.04 447.09,249.21 C448.78,273.07 453.64,290.89 463.68,310.00 C471.25,324.42 476.69,331.79 488.44,343.60 C512.25,367.53 543.40,381.04 580.00,383.33 ZM 1488.50 381.60 C1497.71,383.37 1526.86,382.74 1536.28,380.58 C1546.75,378.17 1560.17,372.78 1569.09,367.39 C1581.99,359.60 1600.42,341.21 1597.36,339.18 C1596.80,338.80 1588.81,332.93 1579.61,326.12 L 1562.87 313.74 L 1561.30 316.12 C1557.11,322.45 1544.83,333.01 1537.61,336.48 C1507.53,350.95 1470.37,339.95 1456.99,312.62 C1453.35,305.18 1450.00,294.84 1450.00,291.04 C1450.00,289.66 1458.36,289.53 1528.63,289.82 C1582.30,290.03 1607.60,289.80 1608.31,289.09 C1610.07,287.33 1609.59,257.86 1607.63,247.00 C1601.14,211.06 1582.04,184.12 1553.73,170.98 C1540.64,164.91 1530.89,162.78 1513.78,162.25 C1496.06,161.70 1485.79,162.84 1473.52,166.71 C1437.52,178.06 1413.74,206.32 1404.86,248.31 C1402.01,261.76 1401.79,287.43 1404.41,299.50 C1409.52,322.99 1418.07,339.09 1433.14,353.57 C1448.68,368.51 1466.02,377.28 1488.50,381.60 ZM 1952.76 382.02 C1955.37,382.50 1964.25,382.75 1972.50,382.58 C1985.51,382.32 1988.56,381.93 1995.50,379.65 C1999.90,378.20 2005.82,375.68 2008.66,374.04 C2015.75,369.95 2024.80,361.32 2029.00,354.65 C2030.93,351.60 2032.74,349.07 2033.04,349.05 C2033.33,349.02 2034.15,354.29 2034.84,360.75 C2035.54,367.21 2036.36,373.74 2036.67,375.25 L 2037.23 378.00 L 2059.06 378.00 C2071.06,378.00 2081.08,377.66 2081.33,377.25 C2081.58,376.84 2081.33,374.25 2080.79,371.50 C2080.23,368.72 2079.47,336.47 2079.08,299.00 L 2078.36 231.50 L 2075.78 221.92 C2066.85,188.77 2042.77,168.06 2007.20,162.95 C1994.81,161.17 1965.63,162.25 1956.00,164.84 C1935.36,170.40 1920.38,179.40 1910.06,192.46 C1909.37,193.33 1908.73,194.12 1908.15,194.84 C1905.67,197.89 1904.19,199.71 1904.28,201.44 C1904.45,204.39 1909.18,207.09 1921.30,215.22 L 1939.63 227.52 L 1943.37 222.24 C1947.39,216.57 1954.93,210.10 1961.29,206.85 C1969.66,202.58 1984.90,200.93 1997.26,202.96 C2011.05,205.21 2022.62,214.01 2026.92,225.52 C2029.00,231.08 2031.74,249.59 2030.64,250.69 C2030.32,251.02 2026.78,250.76 2022.78,250.12 C1996.13,245.88 1966.07,247.07 1946.16,253.16 C1924.98,259.64 1908.08,272.78 1900.58,288.60 C1887.66,315.88 1895.03,350.24 1917.33,366.67 C1927.42,374.10 1940.65,379.84 1952.76,382.02 ZM 1234.50 381.41 C1239.41,382.49 1245.52,382.85 1255.00,382.63 C1266.32,382.36 1269.79,381.88 1276.50,379.68 C1291.52,374.75 1304.15,365.16 1313.46,351.63 C1318.33,344.55 1318.49,344.84 1319.32,362.80 C1319.66,370.11 1320.20,376.52 1320.53,377.05 C1320.87,377.61 1330.49,378.00 1343.81,378.00 L 1366.50 378.00 L 1366.50 166.00 L 1342.34 166.00 L 1318.17 166.00 L 1317.73 226.75 C1317.34,279.75 1317.06,288.46 1315.55,295.00 C1313.13,305.45 1309.85,313.05 1304.56,320.46 C1286.68,345.52 1246.14,344.91 1234.85,319.40 C1230.23,308.94 1230.04,305.55 1230.02,233.75 L 1230.00 166.00 L 1180.92 166.00 L 1181.24 243.75 C1181.56,321.38 1181.56,321.51 1183.87,330.00 C1187.87,344.72 1193.07,354.14 1202.35,363.51 C1208.94,370.17 1212.13,372.52 1219.00,375.81 C1223.68,378.05 1230.65,380.57 1234.50,381.41 ZM 2282.38 413.25 C2283.33,417.21 2284.48,416.66 2286.54,411.26 C2288.90,405.08 2297.08,396.90 2303.26,394.54 C2305.87,393.54 2308.00,392.40 2308.00,392.00 C2308.00,391.60 2306.09,390.54 2303.75,389.64 C2301.41,388.74 2298.15,386.89 2296.50,385.54 L 2293.50 383.07 L 2300.12 383.04 C2312.00,382.97 2334.20,378.00 2337.66,374.63 C2338.55,373.77 2338.01,369.40 2335.43,356.50 C2333.57,347.15 2332.03,338.49 2332.02,337.25 C2332.00,334.46 2330.93,334.45 2324.00,337.12 C2316.31,340.09 2302.01,340.83 2295.31,338.60 C2289.34,336.62 2284.45,332.12 2281.60,326.00 C2279.56,321.63 2279.49,319.94 2279.22,265.75 L 2278.94 210.00 L 2331.00 210.00 L 2331.00 166.00 L 2279.00 166.00 L 2279.00 100.00 L 2230.03 100.00 L 2229.50 165.50 L 2199.00 166.05 L 2199.00 210.00 L 2229.90 210.00 L 2230.27 270.25 C2230.67,337.29 2230.73,337.90 2237.52,351.70 C2244.02,364.92 2254.13,373.51 2269.61,378.98 L 2277.03 381.60 L 2274.27 384.18 C2271.17,387.08 2266.88,389.39 2262.75,390.38 C2261.24,390.74 2260.00,391.47 2260.00,392.00 C2260.00,392.53 2261.24,393.25 2262.75,393.61 C2271.68,395.71 2280.21,404.25 2282.38,413.25 ZM 752.53 330.77 L 751.97 378.04 L 776.24 377.77 L 800.50 377.50 L 801.20 326.50 C801.59,298.45 802.60,237.25 803.46,190.50 C804.31,143.75 805.01,99.31 805.01,91.75 L 805.00 78.00 L 756.31 78.00 L 755.65 112.75 C754.90,152.15 753.35,260.34 752.53,330.77 ZM 1037.79 334.41 C1029.45,336.13 1026.19,336.22 1018.50,334.93 C1006.92,332.98 998.54,328.39 989.75,319.17 C979.84,308.79 974.48,294.50 973.36,275.50 C971.65,246.34 982.79,221.23 1001.70,211.65 C1011.09,206.89 1017.21,205.73 1030.56,206.18 C1042.59,206.58 1042.98,206.66 1051.29,210.78 C1065.08,217.61 1074.14,229.13 1079.03,246.01 C1082.11,256.67 1082.84,276.70 1080.56,288.08 C1075.68,312.48 1059.56,329.94 1037.79,334.41 ZM 841.35 335.75 L 840.71 378.00 L 888.78 378.00 L 889.38 359.75 C889.71,349.71 890.21,314.95 890.49,282.50 C890.78,250.05 891.29,210.56 891.63,194.75 L 892.25 166.00 L 843.29 166.00 L 842.64 229.75 C842.28,264.81 841.70,312.51 841.35,335.75 ZM 2123.00 166.00 L 2123.00 378.00 L 2171.00 378.00 L 2171.00 166.00 ZM 1783.73 333.42 C1777.56,334.70 1768.86,335.00 1738.71,335.00 C1718.15,335.00 1701.03,334.70 1700.67,334.33 C1700.30,333.97 1700.00,315.97 1700.00,294.33 L 1700.00 255.00 L 1738.75 255.02 C1780.75,255.04 1786.55,255.59 1796.62,260.52 C1814.05,269.04 1822.02,294.88 1812.98,313.54 C1808.27,323.26 1797.52,330.57 1783.73,333.42 ZM 1776.00 209.78 C1769.89,211.35 1702.12,212.85 1700.75,211.44 C1700.34,211.01 1700.00,193.37 1700.00,172.23 L 1700.00 133.79 L 1735.75 134.23 C1768.38,134.63 1772.04,134.85 1777.71,136.72 C1796.15,142.79 1804.58,154.41 1804.43,173.50 C1804.33,185.41 1801.65,192.49 1794.60,199.50 C1789.01,205.06 1784.38,207.61 1776.00,209.78 ZM 1995.50 344.00 C1978.44,348.36 1961.77,345.49 1951.07,336.33 C1944.98,331.11 1942.74,326.05 1942.20,316.26 C1941.79,308.82 1942.01,307.49 1944.48,302.46 C1949.02,293.17 1958.06,287.38 1973.50,283.87 C1980.33,282.31 2017.10,282.17 2025.50,283.66 L 2030.50 284.55 L 2030.35 295.16 C2029.99,321.54 2018.09,338.22 1995.50,344.00 ZM 1560.63 250.51 C1560.14,251.80 1552.92,252.00 1506.09,252.00 C1476.41,252.00 1451.89,251.64 1451.62,251.20 C1450.75,249.79 1456.37,234.62 1460.00,228.59 C1466.77,217.33 1480.18,207.58 1493.09,204.54 C1501.37,202.59 1515.98,202.58 1523.46,204.53 C1536.69,207.98 1547.92,216.96 1553.96,228.93 C1557.51,235.95 1561.39,248.53 1560.63,250.51 ZM 989.17 130.10 C988.98,130.62 997.60,131.00 1009.43,131.00 L 1030.02 131.00 L 1052.26 109.26 C1064.49,97.30 1078.78,83.35 1084.00,78.27 L 1093.50 69.03 L 1063.00 69.03 L 1032.50 69.03 L 1011.00 99.11 C999.17,115.66 989.35,129.60 989.17,130.10 ZM 2139.50 136.05 C2152.95,139.40 2168.41,132.00 2174.69,119.21 C2177.06,114.41 2177.48,112.31 2177.40,106.00 C2177.29,96.59 2174.83,90.73 2168.24,84.15 C2162.25,78.16 2156.36,76.00 2146.07,76.01 C2133.57,76.03 2123.87,81.76 2118.17,92.50 C2115.88,96.81 2115.52,98.68 2115.55,106.00 C2115.59,113.17 2116.01,115.29 2118.22,119.56 C2122.46,127.74 2130.18,133.72 2139.50,136.05 ZM 861.75 135.65 C872.73,138.74 884.99,135.07 893.00,126.31 C900.72,117.86 902.93,107.22 899.31,95.98 C896.90,88.54 889.53,80.72 882.41,78.05 C875.70,75.54 865.29,75.34 858.68,77.59 C852.97,79.54 844.64,86.84 841.79,92.39 C839.26,97.32 838.28,108.67 839.88,114.56 C842.41,123.94 851.59,132.79 861.75,135.65 ZM 202.00 235.79 L 202.00 310.09 L 209.25 309.79 L 216.50 309.50 L 217.01 139.00 L 200.69 139.00 L 201.34 150.25 C201.70,156.44 201.99,194.93 202.00,235.79 ZM 259.70 247.62 C267.81,250.64 278.70,247.52 284.97,240.38 C289.48,235.25 291.00,231.11 291.00,224.00 C291.00,216.71 289.41,212.56 284.53,207.17 C279.59,201.70 273.97,199.66 265.18,200.16 C256.33,200.66 249.92,204.34 245.53,211.45 C242.85,215.77 242.50,217.23 242.50,223.92 C242.50,230.42 242.90,232.18 245.31,236.27 C248.24,241.26 253.26,245.22 259.70,247.62 Z" fill="rgb(19,19,19)"/>
<path d="M 2282.38 413.25 C2281.26,408.60 2278.44,404.07 2274.75,400.49 C2277.78,403.23 2279.98,406.30 2281.11,409.43 C2281.82,411.40 2282.97,413.00 2283.67,413.00 C2284.37,413.00 2286.46,410.62 2288.32,407.72 C2292.02,401.93 2296.64,397.62 2301.72,395.19 C2303.52,394.33 2305.00,393.05 2305.00,392.35 C2305.00,391.72 2302.94,389.84 2300.25,387.97 C2301.45,388.63 2302.69,389.23 2303.75,389.64 C2306.09,390.54 2308.00,391.60 2308.00,392.00 C2308.00,392.40 2305.87,393.54 2303.26,394.54 C2297.08,396.90 2288.90,405.08 2286.54,411.26 C2284.48,416.66 2283.33,417.21 2282.38,413.25 ZM 2266.99 395.09 C2265.60,394.45 2264.18,393.95 2262.75,393.61 C2261.24,393.25 2260.00,392.53 2260.00,392.00 C2260.00,391.47 2261.24,390.74 2262.75,390.38 C2263.74,390.14 2264.74,389.83 2265.73,389.45 C2264.17,390.14 2263.00,391.05 2263.00,391.63 C2263.00,392.19 2264.70,393.64 2266.99,395.09 ZM 2296.27 385.35 L 2293.50 383.54 L 2294.02 383.50 ZM 2301.17 383.02 L 2303.00 382.89 C2306.86,382.63 2310.98,382.13 2314.98,381.47 C2310.04,382.33 2305.12,382.91 2301.17,383.02 ZM 2274.27 384.18 L 2277.03 381.60 L 2277.17 381.65 L 2274.05 384.39 C2274.12,384.32 2274.19,384.25 2274.27,384.18 ZM 2269.90 387.43 C2268.69,388.16 2267.49,388.78 2266.57,389.11 C2267.71,388.63 2268.83,388.06 2269.90,387.43 Z" fill="rgb(88,88,87)"/>
<path d="M 2266.99 395.09 C2264.70,393.64 2263.00,392.19 2263.00,391.63 C2263.00,391.05 2264.17,390.14 2265.73,389.45 C2266.01,389.34 2266.29,389.23 2266.56,389.11 L 2266.57 389.11 L 2266.63 389.09 C2267.74,388.61 2268.84,388.05 2269.89,387.43 L 2269.90 387.43 C2271.41,386.54 2272.82,385.51 2274.05,384.38 L 2277.17 381.65 L 2277.03 381.60 L 2271.63 379.69 C2274.99,380.65 2278.48,381.31 2282.04,381.64 C2285.87,382.00 2289.00,382.56 2289.00,382.89 C2289.00,383.20 2290.85,383.29 2293.68,383.22 L 2294.02 383.50 L 2293.50 383.54 L 2296.27 385.35 L 2296.50 385.54 C2297.41,386.28 2298.80,387.17 2300.25,387.97 C2302.94,389.84 2305.00,391.72 2305.00,392.35 C2305.00,393.05 2303.52,394.33 2301.72,395.19 C2296.64,397.62 2292.02,401.93 2288.32,407.72 C2286.46,410.62 2284.37,413.00 2283.67,413.00 C2282.97,413.00 2281.82,411.40 2281.11,409.43 C2279.98,406.30 2277.78,403.23 2274.75,400.49 C2272.44,398.26 2269.78,396.39 2266.99,395.09 ZM 2301.17 383.02 C2300.81,383.03 2300.46,383.03 2300.12,383.04 L 2297.78 383.05 C2302.96,382.76 2309.46,382.20 2314.47,381.56 C2310.63,382.17 2306.70,382.64 2303.00,382.89 ZM 2255.64 372.28 C2247.69,367.15 2241.82,360.44 2237.52,351.70 C2241.63,360.07 2247.95,367.11 2255.64,372.28 ZM 2327.74 378.66 C2332.72,377.18 2336.54,375.64 2337.66,374.59 C2337.96,374.31 2338.10,373.61 2338.05,372.31 C2338.10,373.63 2337.97,374.34 2337.66,374.63 C2336.39,375.87 2332.61,377.32 2327.74,378.66 Z" fill="rgb(180,180,180)"/>
<path d="M 1081.76 396.97 L 1081.50 345.95 L 1077.50 351.06 C1068.60,362.44 1052.70,372.78 1038.00,376.74 C1028.12,379.41 1004.24,379.09 993.50,376.16 C963.02,367.82 941.00,345.98 930.01,313.18 C925.36,299.31 923.67,287.62 923.70,269.50 C923.73,251.46 925.29,240.92 930.13,226.00 C940.45,194.23 961.19,173.20 990.50,164.79 C997.58,162.76 1000.63,162.50 1017.00,162.54 C1034.33,162.58 1036.01,162.75 1043.50,165.26 C1057.76,170.02 1070.10,178.91 1078.68,190.60 C1083.09,196.59 1083.55,196.95 1084.15,194.82 C1084.51,193.55 1084.85,189.57 1084.91,186.00 C1084.97,182.43 1085.30,176.46 1085.65,172.75 L 1086.29 166.00 L 1108.81 166.00 L 1131.33 166.00 L 1130.66 211.75 C1130.30,236.91 1130.00,300.36 1130.00,352.75 L 1130.00 448.00 L 1106.01 448.00 L 1082.02 448.00 L 1081.76 396.97 ZM 1037.79 334.41 C1059.56,329.94 1075.68,312.48 1080.56,288.08 C1082.84,276.70 1082.11,256.67 1079.03,246.01 C1074.14,229.13 1065.08,217.61 1051.29,210.78 C1042.98,206.66 1042.59,206.58 1030.56,206.18 C1017.21,205.73 1011.09,206.89 1001.70,211.65 C982.79,221.23 971.65,246.34 973.36,275.50 C974.48,294.50 979.84,308.79 989.75,319.17 C998.54,328.39 1006.92,332.98 1018.50,334.93 C1026.19,336.22 1029.45,336.13 1037.79,334.41 ZM 104.50 393.06 C94.62,392.06 87.35,389.67 80.45,385.19 C69.32,377.95 62.41,368.66 58.34,355.46 C56.60,349.81 56.50,343.06 56.50,226.50 L 56.50 103.50 L 59.07 95.34 C65.22,75.87 78.59,62.81 98.00,57.33 C104.12,55.61 110.69,55.50 209.50,55.50 C308.33,55.50 314.88,55.61 321.00,57.34 C341.25,63.05 354.42,76.62 360.19,97.69 C362.11,104.72 362.37,108.73 362.76,137.75 L 363.19 170.00 L 330.69 170.00 L 298.20 170.00 L 297.82 153.25 C297.40,134.91 296.51,131.66 290.34,125.80 C284.03,119.81 286.67,120.00 208.74,120.00 L 137.41 120.00 L 132.00 123.25 C127.81,125.76 125.95,127.72 123.77,131.90 L 120.96 137.31 L 121.23 224.40 L 121.50 311.50 L 124.00 315.95 C126.98,321.25 133.56,326.54 139.03,328.01 C141.68,328.72 163.68,328.98 205.74,328.79 C268.03,328.50 268.54,328.48 274.00,326.27 C285.17,321.74 294.31,310.52 296.89,298.20 C297.50,295.29 298.00,289.55 298.00,285.45 L 298.00 278.00 L 330.66 278.00 L 363.31 278.00 L 362.69 292.25 C362.25,302.43 361.37,309.27 359.60,316.21 C349.96,354.14 320.71,382.52 281.90,391.58 C275.26,393.14 266.18,393.34 193.00,393.55 C148.18,393.67 108.35,393.46 104.50,393.06 ZM 580.00 383.33 C543.40,381.04 512.25,367.53 488.44,343.60 C476.69,331.79 471.25,324.42 463.68,310.00 C453.64,290.89 448.78,273.07 447.09,249.21 C443.46,198.04 459.39,153.15 492.94,119.95 C521.73,91.47 560.74,77.17 603.63,79.39 C657.77,82.19 696.40,105.87 718.37,149.70 L 721.97 156.90 L 715.24 160.48 C694.87,171.30 676.11,179.83 675.20,178.69 C674.67,178.04 673.23,175.48 671.99,173.00 C658.19,145.44 633.97,130.09 601.50,128.33 C581.36,127.24 561.99,131.57 546.50,140.63 C535.90,146.83 521.29,161.57 514.61,172.80 C508.61,182.87 503.43,196.39 500.73,209.00 C497.81,222.68 497.82,248.79 500.76,261.60 C505.22,281.05 512.70,295.52 524.89,308.28 C541.72,325.91 559.30,333.70 584.50,334.69 C595.03,335.11 599.31,334.83 607.01,333.23 C635.75,327.27 656.14,310.99 669.62,283.25 C671.55,279.26 673.47,276.00 673.87,276.00 C674.79,276.00 718.25,296.01 719.21,296.88 C719.60,297.23 717.58,301.90 714.71,307.24 C692.14,349.31 658.37,374.15 614.00,381.31 C603.65,382.98 588.68,383.87 580.00,383.33 ZM 2289.00 382.89 C2289.00,382.56 2285.87,382.00 2282.04,381.64 C2262.74,379.85 2245.74,368.42 2237.52,351.70 C2230.73,337.90 2230.67,337.29 2230.27,270.25 L 2229.90 210.00 L 2214.45 210.00 L 2199.00 210.00 L 2199.00 188.03 L 2199.00 166.05 L 2214.25 165.78 L 2229.50 165.50 L 2229.76 132.75 L 2230.03 100.00 L 2254.51 100.00 L 2279.00 100.00 L 2279.00 133.00 L 2279.00 166.00 L 2305.00 166.00 L 2331.00 166.00 L 2331.00 188.00 L 2331.00 210.00 L 2304.97 210.00 L 2278.94 210.00 L 2279.22 265.75 C2279.49,319.94 2279.56,321.63 2281.60,326.00 C2284.45,332.12 2289.34,336.62 2295.31,338.60 C2302.01,340.83 2316.31,340.09 2324.00,337.12 C2330.93,334.45 2332.00,334.46 2332.02,337.25 C2332.03,338.49 2333.57,347.15 2335.43,356.50 C2338.00,369.36 2338.54,373.77 2337.66,374.59 C2336.04,376.11 2328.76,378.65 2320.50,380.57 C2313.43,382.21 2289.00,384.02 2289.00,382.89 ZM 1234.50 381.41 C1230.65,380.57 1223.68,378.05 1219.00,375.81 C1212.13,372.52 1208.94,370.17 1202.35,363.51 C1193.07,354.14 1187.87,344.72 1183.87,330.00 C1181.56,321.51 1181.56,321.38 1181.24,243.75 L 1180.92 166.00 L 1205.46 166.00 L 1230.00 166.00 L 1230.02 233.75 C1230.04,305.55 1230.23,308.94 1234.85,319.40 C1246.14,344.91 1286.68,345.52 1304.56,320.46 C1309.85,313.05 1313.13,305.45 1315.55,295.00 C1317.06,288.46 1317.34,279.75 1317.73,226.75 L 1318.17 166.00 L 1342.34 166.00 L 1366.50 166.00 L 1366.50 272.00 L 1366.50 378.00 L 1343.81 378.00 C1330.49,378.00 1320.87,377.61 1320.53,377.05 C1320.20,376.52 1319.66,370.11 1319.32,362.80 C1318.49,344.84 1318.33,344.55 1313.46,351.63 C1304.15,365.16 1291.52,374.75 1276.50,379.68 C1269.79,381.88 1266.32,382.36 1255.00,382.63 C1245.52,382.85 1239.41,382.49 1234.50,381.41 ZM 1488.50 381.60 C1466.02,377.28 1448.68,368.51 1433.14,353.57 C1418.07,339.09 1409.52,322.99 1404.41,299.50 C1401.79,287.43 1402.01,261.76 1404.86,248.31 C1413.74,206.32 1437.52,178.06 1473.52,166.71 C1485.79,162.84 1496.06,161.70 1513.78,162.25 C1530.89,162.78 1540.64,164.91 1553.73,170.98 C1582.04,184.12 1601.14,211.06 1607.63,247.00 C1609.59,257.86 1610.07,287.33 1608.31,289.09 C1607.60,289.80 1582.30,290.03 1528.63,289.82 C1458.36,289.53 1450.00,289.66 1450.00,291.04 C1450.00,294.84 1453.35,305.18 1456.99,312.62 C1470.37,339.95 1507.53,350.95 1537.61,336.48 C1544.83,333.01 1557.11,322.45 1561.30,316.12 L 1562.87 313.74 L 1579.61 326.12 C1588.81,332.93 1596.80,338.80 1597.36,339.18 C1600.42,341.21 1581.99,359.60 1569.09,367.39 C1560.17,372.78 1546.75,378.17 1536.28,380.58 C1526.86,382.74 1497.71,383.37 1488.50,381.60 ZM 1560.63 250.51 C1561.39,248.53 1557.51,235.95 1553.96,228.93 C1547.92,216.96 1536.69,207.98 1523.46,204.53 C1515.98,202.58 1501.37,202.59 1493.09,204.54 C1480.18,207.58 1466.77,217.33 1460.00,228.59 C1456.37,234.62 1450.75,249.79 1451.62,251.20 C1451.89,251.64 1476.41,252.00 1506.09,252.00 C1552.92,252.00 1560.14,251.80 1560.63,250.51 ZM 1952.76 382.02 C1940.65,379.84 1927.42,374.10 1917.33,366.67 C1895.03,350.24 1887.66,315.88 1900.58,288.60 C1908.08,272.78 1924.98,259.64 1946.16,253.16 C1966.07,247.07 1996.13,245.88 2022.78,250.12 C2026.78,250.76 2030.32,251.02 2030.64,250.69 C2031.74,249.59 2029.00,231.08 2026.92,225.52 C2022.62,214.01 2011.05,205.21 1997.26,202.96 C1984.90,200.93 1969.66,202.58 1961.29,206.85 C1954.93,210.10 1947.39,216.57 1943.37,222.24 L 1939.63 227.52 L 1921.30 215.22 C1900.40,201.19 1901.46,203.34 1910.06,192.46 C1920.38,179.40 1935.36,170.40 1956.00,164.84 C1965.63,162.25 1994.81,161.17 2007.20,162.95 C2042.77,168.06 2066.85,188.77 2075.78,221.92 L 2078.36 231.50 L 2079.08 299.00 C2079.47,336.47 2080.23,368.72 2080.79,371.50 C2081.33,374.25 2081.58,376.84 2081.33,377.25 C2081.08,377.66 2071.06,378.00 2059.06,378.00 L 2037.23 378.00 L 2036.67 375.25 C2036.36,373.74 2035.54,367.21 2034.84,360.75 C2034.15,354.29 2033.33,349.02 2033.04,349.05 C2032.74,349.07 2030.93,351.60 2029.00,354.65 C2024.80,361.32 2015.75,369.95 2008.66,374.04 C2005.82,375.68 1999.90,378.20 1995.50,379.65 C1988.56,381.93 1985.51,382.32 1972.50,382.58 C1964.25,382.75 1955.37,382.50 1952.76,382.02 ZM 1995.50 344.00 C2018.09,338.22 2029.99,321.54 2030.35,295.16 L 2030.50 284.55 L 2025.50 283.66 C2017.10,282.17 1980.33,282.31 1973.50,283.87 C1958.06,287.38 1949.02,293.17 1944.48,302.46 C1942.01,307.49 1941.79,308.82 1942.20,316.26 C1942.74,326.05 1944.98,331.11 1951.07,336.33 C1961.77,345.49 1978.44,348.36 1995.50,344.00 ZM 752.53 330.77 C753.35,260.34 754.90,152.15 755.65,112.75 L 756.31 78.00 L 780.65 78.00 L 805.00 78.00 L 805.01 91.75 C805.01,99.31 804.31,143.75 803.46,190.50 C802.60,237.25 801.59,298.45 801.20,326.50 L 800.50 377.50 L 776.24 377.77 L 751.97 378.04 L 752.53 330.77 ZM 841.35 335.75 C841.70,312.51 842.28,264.81 842.64,229.75 L 843.29 166.00 L 867.77 166.00 L 892.25 166.00 L 891.63 194.75 C891.29,210.56 890.78,250.05 890.49,282.50 C890.21,314.95 889.71,349.71 889.38,359.75 L 888.78 378.00 L 864.75 378.00 L 840.71 378.00 L 841.35 335.75 ZM 1650.00 233.56 L 1650.00 89.00 L 1711.43 89.00 C1786.77,89.00 1792.37,89.61 1813.89,100.10 C1822.85,104.48 1825.46,106.36 1832.89,113.84 C1842.72,123.73 1847.03,130.47 1851.05,142.24 C1858.21,163.17 1856.85,186.07 1847.39,204.08 C1843.19,212.08 1833.04,223.53 1826.48,227.67 C1824.02,229.23 1822.00,230.74 1822.00,231.04 C1822.00,231.33 1824.81,232.96 1828.25,234.66 C1847.03,243.95 1859.32,258.89 1865.13,279.50 C1868.04,289.82 1868.29,308.87 1865.66,319.47 C1858.49,348.32 1835.76,367.77 1799.97,375.66 C1793.53,377.09 1782.71,377.37 1721.25,377.72 L 1650.00 378.12 L 1650.00 233.56 ZM 1783.73 333.42 C1797.52,330.57 1808.27,323.26 1812.98,313.54 C1822.02,294.88 1814.05,269.04 1796.62,260.52 C1786.55,255.59 1780.75,255.04 1738.75,255.02 L 1700.00 255.00 L 1700.00 294.33 C1700.00,315.97 1700.30,333.97 1700.67,334.33 C1701.03,334.70 1718.15,335.00 1738.71,335.00 C1768.86,335.00 1777.56,334.70 1783.73,333.42 ZM 1776.00 209.78 C1784.38,207.61 1789.01,205.06 1794.60,199.50 C1801.65,192.49 1804.33,185.41 1804.43,173.50 C1804.58,154.41 1796.15,142.79 1777.71,136.72 C1772.04,134.85 1768.38,134.63 1735.75,134.23 L 1700.00 133.79 L 1700.00 172.23 C1700.00,193.37 1700.34,211.01 1700.75,211.44 C1702.12,212.85 1769.89,211.35 1776.00,209.78 ZM 2123.00 272.00 L 2123.00 166.00 L 2147.00 166.00 L 2171.00 166.00 L 2171.00 272.00 L 2171.00 378.00 L 2147.00 378.00 L 2123.00 378.00 L 2123.00 272.00 ZM 202.00 235.79 C201.99,194.93 201.70,156.44 201.34,150.25 L 200.69 139.00 L 208.85 139.00 L 217.01 139.00 L 216.76 224.25 L 216.50 309.50 L 209.25 309.79 L 202.00 310.09 L 202.00 235.79 ZM 259.70 247.62 C253.26,245.22 248.24,241.26 245.31,236.27 C242.90,232.18 242.50,230.42 242.50,223.92 C242.50,217.23 242.85,215.77 245.53,211.45 C249.92,204.34 256.33,200.66 265.18,200.16 C273.97,199.66 279.59,201.70 284.53,207.17 C289.41,212.56 291.00,216.71 291.00,224.00 C291.00,231.11 289.48,235.25 284.97,240.38 C278.70,247.52 267.81,250.64 259.70,247.62 ZM 861.75 135.65 C851.59,132.79 842.41,123.94 839.88,114.56 C838.28,108.67 839.26,97.32 841.79,92.39 C844.64,86.84 852.97,79.54 858.68,77.59 C865.29,75.34 875.70,75.54 882.41,78.05 C889.53,80.72 896.90,88.54 899.31,95.98 C902.93,107.22 900.72,117.86 893.00,126.31 C884.99,135.07 872.73,138.74 861.75,135.65 ZM 2139.50 136.05 C2130.18,133.72 2122.46,127.74 2118.22,119.56 C2116.01,115.29 2115.59,113.17 2115.55,106.00 C2115.52,98.68 2115.88,96.81 2118.17,92.50 C2123.87,81.76 2133.57,76.03 2146.07,76.01 C2156.36,76.00 2162.25,78.16 2168.24,84.15 C2174.83,90.73 2177.29,96.59 2177.40,106.00 C2177.48,112.31 2177.06,114.41 2174.69,119.21 C2168.41,132.00 2152.95,139.40 2139.50,136.05 ZM 989.17 130.10 C989.35,129.60 999.17,115.66 1011.00,99.11 L 1032.50 69.03 L 1063.00 69.03 L 1093.50 69.03 L 1084.00 78.27 C1078.78,83.35 1064.49,97.30 1052.26,109.26 L 1030.02 131.00 L 1009.43 131.00 C997.60,131.00 988.98,130.62 989.17,130.10 Z" fill="rgb(254,254,254)"/>
</g>
</svg>